<svg width="20" height="21" viewBox="0 0 20 21" fill="none" xmlns="http://www.w3.org/2000/svg">
<path d="M16.875 4.25H3.125C2.77982 4.25 2.5 4.52982 2.5 4.875V16.125C2.5 16.4702 2.77982 16.75 3.125 16.75H16.875C17.2202 16.75 17.5 16.4702 17.5 16.125V4.875C17.5 4.52982 17.2202 4.25 16.875 4.25Z" stroke="#343330" stroke-width="1.7" stroke-linecap="round" stroke-linejoin="round"/>
<path d="M13.4375 8.46875L12.9688 10.8125L14.8438 11.5156L11.5625 15.0312L12.0312 12.6875L10.1562 11.9844L13.4375 8.46875Z" stroke="#343330" stroke-linecap="round" stroke-linejoin="round"/>
<path d="M9.12109 6.71094H5.25391C5.15682 6.71094 5.07812 6.75466 5.07812 6.80859V8.56641C5.07812 8.62034 5.15682 8.66406 5.25391 8.66406H9.12109C9.21817 8.66406 9.29688 8.62034 9.29688 8.56641V6.80859C9.29688 6.75466 9.21817 6.71094 9.12109 6.71094Z" stroke="#343330" stroke-linecap="round" stroke-linejoin="round"/>
</svg>
